<?xml version="1.0" encoding="UTF-8"?>
<svg xmlns="http://www.w3.org/2000/svg" xmlns:xlink="http://www.w3.org/1999/xlink" width="16" height="16" viewBox="0 0 16 16" version="1.1">
<defs>
<linearGradient id="linear0" gradientUnits="userSpaceOnUse" x1="9.6836" y1="33.999001" x2="57.308998" y2="33.999001" gradientTransform="matrix(0.236222,0,0,0.236222,0,0)">
<stop offset="0" style="stop-color:rgb(87.843138%,76.47059%,53.725493%);stop-opacity:1;"/>
<stop offset="1" style="stop-color:rgb(94.901961%,84.705883%,65.490198%);stop-opacity:1;"/>
</linearGradient>
<linearGradient id="linear1" gradientUnits="userSpaceOnUse" x1="9.6104" y1="34.396" x2="58.125" y2="34.396" gradientTransform="matrix(0.236222,0,0,0.236222,0,0)">
<stop offset="0" style="stop-color:rgb(75.686276%,87.843138%,80.784315%);stop-opacity:1;"/>
<stop offset="1" style="stop-color:rgb(62.352943%,87.843138%,71.372551%);stop-opacity:1;"/>
</linearGradient>
<linearGradient id="linear2" gradientUnits="userSpaceOnUse" x1="6.4499" y1="34.396" x2="61.813999" y2="34.396" >
<stop offset="0" style="stop-color:rgb(3.137255%,38.82353%,38.431373%);stop-opacity:1;"/>
<stop offset="1" style="stop-color:rgb(2.745098%,38.82353%,38.039216%);stop-opacity:1;"/>
</linearGradient>
<linearGradient id="linear3" gradientUnits="userSpaceOnUse" x1="6.4499" y1="34.396" x2="61.813999" y2="34.396" >
<stop offset="0" style="stop-color:rgb(75.686276%,87.843138%,80.784315%);stop-opacity:0;"/>
<stop offset="1" style="stop-color:rgb(75.686276%,87.843138%,80.784315%);stop-opacity:1;"/>
</linearGradient>
</defs>
<g id="surface1">
<path style=" stroke:none;fill-rule:nonzero;fill:url(#linear0);" d="M 3.4375 3.570312 C 5.527344 1.449219 12.386719 3.570312 12.386719 3.570312 C 12.386719 3.570312 14.476562 10.367188 12.386719 12.492188 C 10.296875 14.613281 3.4375 12.492188 3.4375 12.492188 C 3.4375 12.492188 1.347656 5.695312 3.4375 3.570312 Z M 3.4375 3.570312 "/>
<path style=" stroke:none;fill-rule:nonzero;fill:url(#linear1);" d="M 5.320312 2.402344 C 8.007812 1.121094 13.730469 5.464844 13.730469 5.464844 C 13.730469 5.464844 13.367188 12.566406 10.679688 13.847656 C 7.992188 15.128906 2.269531 10.785156 2.269531 10.785156 C 2.269531 10.785156 2.632812 3.683594 5.320312 2.402344 Z M 5.320312 2.402344 "/>
<path style="fill-rule:nonzero;fill:url(#linear2);stroke-width:1.8768;stroke-linecap:round;stroke-linejoin:round;stroke:url(#linear3);stroke-miterlimit:4;" d="M 34.081474 7.656343 C 46.69873 7.540588 60.870405 34.445274 60.870405 34.445274 C 60.870405 34.445274 46.781412 61.035769 34.180692 61.134987 C 21.563436 61.250742 7.391761 34.346056 7.391761 34.346056 C 7.391761 34.346056 21.480754 7.755561 34.081474 7.656343 Z M 34.081474 7.656343 " transform="matrix(0.236222,0,0,0.236222,0,0)"/>
<path style=" stroke:none;fill-rule:nonzero;fill:rgb(100%,100%,100%);fill-opacity:1;" d="M 7.988281 10.722656 C 7.761719 10.496094 7.5625 10.242188 7.398438 9.964844 C 6.980469 9.242188 6.90625 8.535156 6.894531 8.140625 C 6.894531 8.140625 6.953125 6.402344 7.96875 5.519531 L 7.5 5.050781 C 7.5 5.050781 6.238281 6.53125 6.238281 7.828125 C 6.210938 8.214844 6.238281 8.605469 6.316406 8.984375 C 6.550781 10.097656 7.179688 10.839844 7.523438 11.1875 Z M 7.988281 10.722656 "/>
<path style=" stroke:none;fill-rule:nonzero;fill:rgb(100%,100%,100%);fill-opacity:1;" d="M 9.015625 9.695312 L 8.558594 10.152344 C 8.558594 10.152344 7.5625 9.28125 7.726562 7.796875 C 7.726562 7.796875 7.75 6.941406 8.542969 6.09375 L 9 6.550781 C 9 6.550781 8.304688 7.191406 8.371094 8.269531 C 8.371094 8.269531 8.394531 9.078125 9.015625 9.695312 Z M 9.015625 9.695312 "/>
<path style=" stroke:none;fill-rule:nonzero;fill:rgb(100%,100%,100%);fill-opacity:1;" d="M 9.195312 7.679688 C 9.4375 7.433594 9.832031 7.433594 10.074219 7.679688 C 10.316406 7.921875 10.316406 8.316406 10.074219 8.558594 C 9.832031 8.800781 9.4375 8.800781 9.195312 8.558594 C 8.949219 8.316406 8.949219 7.921875 9.195312 7.679688 Z M 9.195312 7.679688 "/>
</g>
</svg>
