<svg width="256" height="256" version="1.1" viewBox="0 0 67.733 67.733" xmlns="http://www.w3.org/2000/svg" xmlns:xlink="http://www.w3.org/1999/xlink">
 <defs>
  <linearGradient id="linearGradient13" x1="9.6836" x2="57.309" y1="33.999" y2="33.999" gradientUnits="userSpaceOnUse">
   <stop style="stop-color:#e0c389" offset="0"/>
   <stop style="stop-color:#f2d8a7" offset="1"/>
  </linearGradient>
  <linearGradient id="linearGradient15" x1="9.6104" x2="58.125" y1="34.396" y2="34.396" gradientUnits="userSpaceOnUse">
   <stop style="stop-color:#c1e0ce" offset="0"/>
   <stop style="stop-color:#9fe0b6" offset="1"/>
  </linearGradient>
  <linearGradient id="linearGradient17" x1="6.4499" x2="61.814" y1="34.396" y2="34.396" gradientUnits="userSpaceOnUse">
   <stop style="stop-color:#086362" offset="0"/>
   <stop style="stop-color:#076361" offset="1"/>
  </linearGradient>
  <linearGradient id="linearGradient19" x1="6.4499" x2="61.814" y1="34.396" y2="34.396" gradientUnits="userSpaceOnUse">
   <stop style="stop-color:#c1e0ce;stop-opacity:0" offset="0"/>
   <stop style="stop-color:#c1e0ce" offset="1"/>
  </linearGradient>
  <style>.cls-1{fill:#cdccd2;}.cls-2{fill:#ffffff;}.cls-3{fill:#ff8133;}</style>
 </defs>
 <path d="m14.552 15.121c8.8419-8.989 37.888 0 37.888 0s8.8419 28.768 0 37.757c-8.8419 8.9885-37.885 0-37.885 0s-8.8443-28.767-.0023-37.757z" style="fill:url(#linearGradient13);paint-order:normal"/>
 <path d="m22.522 10.177c11.383-5.4228 35.603 12.958 35.603 12.958s-1.5305 30.057-12.913 35.48c-11.383 5.4223-35.601-12.958-35.601-12.958s1.5282-30.058 12.911-35.48z" style="fill:url(#linearGradient15);paint-order:normal"/>
 <path d="m34.085 7.6514c12.608-.10401 26.791 26.791 26.791 26.791s-14.09 26.594-26.698 26.698c-12.608.10362-26.789-26.789-26.789-26.789s14.088-26.596 26.696-26.7z" style="fill:url(#linearGradient17);paint-order:normal;stroke-linecap:round;stroke-linejoin:round;stroke-width:1.8768;stroke:url(#linearGradient19)"/>
 <g transform="matrix(-.077163 -.077163 .077163 -.077163 31.516 74.544)" style="fill:#ffffff;stroke-width:.99893">
  <path class="cls-3" d="m174 203.79a146.05 146.05 0 0136.94 4.71c31.31 8.24 52.71 25.69 63.87 36.23 0 0 46.11 49.27 42.53 101.27h25.66s-6-75.27-41.59-110.84a165.42 165.42 0 00-33.87-29.53c-37-24.16-74.53-27.24-93.53-27.3v25.46z" style="fill:#ffffff;stroke-width:.99893"/>
  <path class="cls-3" d="m174 260.12v-25.12s51.25-3.33 87.42 41.86c0 0 22.88 24.13 24.32 69.13h-25s1.38-36.59-30-64.35c0 .01-22.74-21.52-56.74-21.52z" style="fill:#ffffff;stroke-width:.99893"/>
  <circle class="cls-3" cx="200.29" cy="320.38" r="24.14" style="fill:#ffffff;stroke-width:.99893"/>
 </g>
</svg>
