<?xml version="1.0" encoding="UTF-8"?>
<svg xmlns="http://www.w3.org/2000/svg" xmlns:xlink="http://www.w3.org/1999/xlink" width="128" height="128" viewBox="0 0 128 128" version="1.1">
<defs>
<linearGradient id="linear0" gradientUnits="userSpaceOnUse" x1="9.6836" y1="33.999001" x2="57.308998" y2="33.999001" gradientTransform="matrix(1.889773,0,0,1.889773,0,0)">
<stop offset="0" style="stop-color:rgb(87.843138%,76.47059%,53.725493%);stop-opacity:1;"/>
<stop offset="1" style="stop-color:rgb(94.901961%,84.705883%,65.490198%);stop-opacity:1;"/>
</linearGradient>
<linearGradient id="linear1" gradientUnits="userSpaceOnUse" x1="9.6104" y1="34.396" x2="58.125" y2="34.396" gradientTransform="matrix(1.889773,0,0,1.889773,0,0)">
<stop offset="0" style="stop-color:rgb(75.686276%,87.843138%,80.784315%);stop-opacity:1;"/>
<stop offset="1" style="stop-color:rgb(62.352943%,87.843138%,71.372551%);stop-opacity:1;"/>
</linearGradient>
<linearGradient id="linear2" gradientUnits="userSpaceOnUse" x1="6.4499" y1="34.396" x2="61.813999" y2="34.396" >
<stop offset="0" style="stop-color:rgb(3.137255%,38.82353%,38.431373%);stop-opacity:1;"/>
<stop offset="1" style="stop-color:rgb(2.745098%,38.82353%,38.039216%);stop-opacity:1;"/>
</linearGradient>
<linearGradient id="linear3" gradientUnits="userSpaceOnUse" x1="6.4499" y1="34.396" x2="61.813999" y2="34.396" >
<stop offset="0" style="stop-color:rgb(75.686276%,87.843138%,80.784315%);stop-opacity:0;"/>
<stop offset="1" style="stop-color:rgb(75.686276%,87.843138%,80.784315%);stop-opacity:1;"/>
</linearGradient>
</defs>
<g id="surface1">
<path style=" stroke:none;fill-rule:nonzero;fill:url(#linear0);" d="M 27.5 28.574219 C 44.210938 11.589844 99.101562 28.574219 99.101562 28.574219 C 99.101562 28.574219 115.808594 82.941406 99.101562 99.925781 C 82.390625 116.914062 27.503906 99.925781 27.503906 99.925781 C 27.503906 99.925781 10.792969 45.5625 27.5 28.574219 Z M 27.5 28.574219 "/>
<path style=" stroke:none;fill-rule:nonzero;fill:url(#linear1);" d="M 42.5625 19.230469 C 64.074219 8.984375 109.84375 43.71875 109.84375 43.71875 C 109.84375 43.71875 106.949219 100.519531 85.441406 110.769531 C 63.929688 121.015625 18.164062 86.28125 18.164062 86.28125 C 18.164062 86.28125 21.050781 29.480469 42.5625 19.230469 Z M 42.5625 19.230469 "/>
<path style="fill-rule:nonzero;fill:url(#linear2);stroke-width:1.8768;stroke-linecap:round;stroke-linejoin:round;stroke:url(#linear3);stroke-miterlimit:4;" d="M 34.085608 7.652209 C 46.692529 7.546789 60.876606 34.443207 60.876606 34.443207 C 60.876606 34.443207 46.785546 61.035769 34.178625 61.141188 C 21.569637 61.244541 7.389694 34.352257 7.389694 34.352257 C 7.389694 34.352257 21.47662 7.755561 34.085608 7.652209 Z M 34.085608 7.652209 " transform="matrix(1.889773,0,0,1.889773,0,0)"/>
<path style=" stroke:none;fill-rule:nonzero;fill:rgb(100%,100%,100%);fill-opacity:1;" d="M 63.902344 85.78125 C 62.082031 83.964844 60.503906 81.925781 59.203125 79.707031 C 55.839844 73.941406 55.261719 68.277344 55.171875 65.113281 C 55.171875 65.113281 55.632812 51.203125 63.738281 44.144531 L 59.996094 40.402344 C 59.996094 40.402344 49.894531 52.25 49.898438 62.628906 C 49.6875 65.722656 49.898438 68.835938 50.53125 71.875 C 52.402344 80.792969 57.425781 86.714844 60.1875 89.492188 Z M 63.902344 85.78125 "/>
<path style=" stroke:none;fill-rule:nonzero;fill:rgb(100%,100%,100%);fill-opacity:1;" d="M 72.117188 77.566406 L 68.453125 81.230469 C 68.453125 81.230469 60.496094 74.242188 61.808594 62.378906 C 61.808594 62.378906 61.992188 55.523438 68.34375 48.753906 L 71.988281 52.398438 C 71.988281 52.398438 66.453125 57.53125 66.980469 66.15625 C 66.980469 66.152344 67.160156 72.609375 72.117188 77.566406 Z M 72.117188 77.566406 "/>
<path style=" stroke:none;fill-rule:nonzero;fill:rgb(100%,100%,100%);fill-opacity:1;" d="M 73.550781 61.425781 C 75.492188 59.484375 78.644531 59.484375 80.589844 61.425781 C 82.535156 63.371094 82.535156 66.523438 80.589844 68.46875 C 78.644531 70.410156 75.492188 70.410156 73.550781 68.46875 C 71.605469 66.523438 71.605469 63.371094 73.550781 61.425781 Z M 73.550781 61.425781 "/>
</g>
</svg>
