<?xml version="1.0" encoding="UTF-8"?>
<svg xmlns="http://www.w3.org/2000/svg" xmlns:xlink="http://www.w3.org/1999/xlink" width="48" height="48" viewBox="0 0 48 48" version="1.1">
<defs>
<linearGradient id="linear0" gradientUnits="userSpaceOnUse" x1="9.6836" y1="33.999001" x2="57.308998" y2="33.999001" gradientTransform="matrix(0.708665,0,0,0.708665,0,0)">
<stop offset="0" style="stop-color:rgb(87.843138%,76.47059%,53.725493%);stop-opacity:1;"/>
<stop offset="1" style="stop-color:rgb(94.901961%,84.705883%,65.490198%);stop-opacity:1;"/>
</linearGradient>
<linearGradient id="linear1" gradientUnits="userSpaceOnUse" x1="9.6104" y1="34.396" x2="58.125" y2="34.396" gradientTransform="matrix(0.708665,0,0,0.708665,0,0)">
<stop offset="0" style="stop-color:rgb(75.686276%,87.843138%,80.784315%);stop-opacity:1;"/>
<stop offset="1" style="stop-color:rgb(62.352943%,87.843138%,71.372551%);stop-opacity:1;"/>
</linearGradient>
<linearGradient id="linear2" gradientUnits="userSpaceOnUse" x1="6.4499" y1="34.396" x2="61.813999" y2="34.396" gradientTransform="matrix(1,0,0,1,0,0)">
<stop offset="0" style="stop-color:rgb(3.137255%,38.82353%,38.431373%);stop-opacity:1;"/>
<stop offset="1" style="stop-color:rgb(2.745098%,38.82353%,38.039216%);stop-opacity:1;"/>
</linearGradient>
<linearGradient id="linear3" gradientUnits="userSpaceOnUse" x1="6.4499" y1="34.396" x2="61.813999" y2="34.396" gradientTransform="matrix(1,0,0,1,0,0)">
<stop offset="0" style="stop-color:rgb(75.686276%,87.843138%,80.784315%);stop-opacity:0;"/>
<stop offset="1" style="stop-color:rgb(75.686276%,87.843138%,80.784315%);stop-opacity:1;"/>
</linearGradient>
</defs>
<g id="surface1">
<path style=" stroke:none;fill-rule:nonzero;fill:url(#linear0);" d="M 10.3125 10.714844 C 16.578125 4.34375 37.164062 10.714844 37.164062 10.714844 C 37.164062 10.714844 43.429688 31.101562 37.164062 37.472656 C 30.894531 43.84375 10.316406 37.472656 10.316406 37.472656 C 10.316406 37.472656 4.046875 17.085938 10.3125 10.714844 Z M 10.3125 10.714844 "/>
<path style=" stroke:none;fill-rule:nonzero;fill:url(#linear1);" d="M 15.960938 7.210938 C 24.027344 3.367188 41.191406 16.394531 41.191406 16.394531 C 41.191406 16.394531 40.105469 37.695312 32.039062 41.539062 C 23.972656 45.382812 6.8125 32.355469 6.8125 32.355469 C 6.8125 32.355469 7.894531 11.054688 15.960938 7.210938 Z M 15.960938 7.210938 "/>
<path style="fill-rule:nonzero;fill:url(#linear2);stroke-width:1.8768;stroke-linecap:round;stroke-linejoin:round;stroke:url(#linear3);stroke-miterlimit:4;" d="M 34.086986 7.650831 C 46.693218 7.5461 60.875917 34.439762 60.875917 34.439762 C 60.875917 34.439762 46.786924 61.035769 34.180692 61.140499 C 21.568948 61.24523 7.386249 34.351568 7.386249 34.351568 C 7.386249 34.351568 21.475242 7.755561 34.086986 7.650831 Z M 34.086986 7.650831 " transform="matrix(0.708665,0,0,0.708665,0,0)"/>
<path style=" stroke:none;fill-rule:nonzero;fill:rgb(100%,100%,100%);fill-opacity:1;" d="M 23.964844 32.167969 C 23.28125 31.488281 22.6875 30.722656 22.199219 29.890625 C 20.9375 27.726562 20.722656 25.601562 20.6875 24.417969 C 20.6875 24.417969 20.863281 19.203125 23.902344 16.554688 L 22.5 15.148438 C 22.5 15.148438 18.710938 19.59375 18.710938 23.484375 C 18.632812 24.648438 18.710938 25.8125 18.949219 26.953125 C 19.652344 30.296875 21.535156 32.515625 22.570312 33.558594 L 23.960938 32.167969 Z M 23.964844 32.167969 "/>
<path style=" stroke:none;fill-rule:nonzero;fill:rgb(100%,100%,100%);fill-opacity:1;" d="M 27.042969 29.085938 L 25.671875 30.460938 C 25.671875 30.460938 22.683594 27.839844 23.179688 23.390625 C 23.179688 23.390625 23.246094 20.820312 25.628906 18.28125 L 26.996094 19.648438 C 26.996094 19.648438 24.917969 21.574219 25.117188 24.808594 C 25.117188 24.808594 25.183594 27.230469 27.042969 29.085938 Z M 27.042969 29.085938 "/>
<path style=" stroke:none;fill-rule:nonzero;fill:rgb(100%,100%,100%);fill-opacity:1;" d="M 27.582031 23.035156 C 28.308594 22.304688 29.492188 22.304688 30.222656 23.035156 C 30.949219 23.765625 30.949219 24.945312 30.222656 25.675781 C 29.492188 26.402344 28.308594 26.402344 27.582031 25.675781 C 26.851562 24.945312 26.851562 23.765625 27.582031 23.035156 Z M 27.582031 23.035156 "/>
</g>
</svg>
