<?xml version="1.0" encoding="UTF-8"?>
<svg xmlns="http://www.w3.org/2000/svg" xmlns:xlink="http://www.w3.org/1999/xlink" width="64" height="64" viewBox="0 0 64 64" version="1.1">
<defs>
<linearGradient id="linear0" gradientUnits="userSpaceOnUse" x1="9.6836" y1="33.999001" x2="57.308998" y2="33.999001" gradientTransform="matrix(0.944887,0,0,0.944887,0,0)">
<stop offset="0" style="stop-color:rgb(87.843138%,76.47059%,53.725493%);stop-opacity:1;"/>
<stop offset="1" style="stop-color:rgb(94.901961%,84.705883%,65.490198%);stop-opacity:1;"/>
</linearGradient>
<linearGradient id="linear1" gradientUnits="userSpaceOnUse" x1="9.6104" y1="34.396" x2="58.125" y2="34.396" gradientTransform="matrix(0.944887,0,0,0.944887,0,0)">
<stop offset="0" style="stop-color:rgb(75.686276%,87.843138%,80.784315%);stop-opacity:1;"/>
<stop offset="1" style="stop-color:rgb(62.352943%,87.843138%,71.372551%);stop-opacity:1;"/>
</linearGradient>
<linearGradient id="linear2" gradientUnits="userSpaceOnUse" x1="6.4499" y1="34.396" x2="61.813999" y2="34.396" >
<stop offset="0" style="stop-color:rgb(3.137255%,38.82353%,38.431373%);stop-opacity:1;"/>
<stop offset="1" style="stop-color:rgb(2.745098%,38.82353%,38.039216%);stop-opacity:1;"/>
</linearGradient>
<linearGradient id="linear3" gradientUnits="userSpaceOnUse" x1="6.4499" y1="34.396" x2="61.813999" y2="34.396" >
<stop offset="0" style="stop-color:rgb(75.686276%,87.843138%,80.784315%);stop-opacity:0;"/>
<stop offset="1" style="stop-color:rgb(75.686276%,87.843138%,80.784315%);stop-opacity:1;"/>
</linearGradient>
</defs>
<g id="surface1">
<path style=" stroke:none;fill-rule:nonzero;fill:url(#linear0);" d="M 13.75 14.289062 C 22.105469 5.792969 49.550781 14.289062 49.550781 14.289062 C 49.550781 14.289062 57.90625 41.46875 49.550781 49.964844 C 41.195312 58.457031 13.753906 49.964844 13.753906 49.964844 C 13.753906 49.964844 5.394531 22.78125 13.75 14.289062 Z M 13.75 14.289062 "/>
<path style=" stroke:none;fill-rule:nonzero;fill:url(#linear1);" d="M 21.28125 9.617188 C 32.035156 4.492188 54.921875 21.859375 54.921875 21.859375 C 54.921875 21.859375 53.476562 50.261719 42.71875 55.382812 C 31.964844 60.507812 9.082031 43.140625 9.082031 43.140625 C 9.082031 43.140625 10.523438 14.738281 21.28125 9.617188 Z M 21.28125 9.617188 "/>
<path style="fill-rule:nonzero;fill:url(#linear2);stroke-width:1.8768;stroke-linecap:round;stroke-linejoin:round;stroke:url(#linear3);stroke-miterlimit:4;" d="M 34.085608 7.652209 C 46.694596 7.548856 60.874539 34.44114 60.874539 34.44114 C 60.874539 34.44114 46.785546 61.035769 34.176558 61.139121 C 21.571704 61.242474 7.387627 34.35019 7.387627 34.35019 C 7.387627 34.35019 21.47662 7.755561 34.085608 7.652209 Z M 34.085608 7.652209 " transform="matrix(0.944887,0,0,0.944887,0,0)"/>
<path style=" stroke:none;fill-rule:nonzero;fill:rgb(100%,100%,100%);fill-opacity:1;" d="M 31.949219 42.890625 C 31.042969 41.984375 30.25 40.960938 29.601562 39.855469 C 27.917969 36.96875 27.632812 34.136719 27.585938 32.554688 C 27.585938 32.554688 27.816406 25.601562 31.867188 22.070312 L 29.996094 20.199219 C 29.996094 20.199219 24.949219 26.125 24.949219 31.3125 C 24.84375 32.863281 24.949219 34.417969 25.265625 35.9375 C 26.203125 40.394531 28.714844 43.355469 30.09375 44.746094 Z M 31.949219 42.890625 "/>
<path style=" stroke:none;fill-rule:nonzero;fill:rgb(100%,100%,100%);fill-opacity:1;" d="M 36.058594 38.785156 L 34.226562 40.617188 C 34.226562 40.617188 30.246094 37.121094 30.90625 31.191406 C 30.90625 31.191406 30.996094 27.761719 34.171875 24.375 L 35.996094 26.199219 C 35.996094 26.199219 33.226562 28.765625 33.488281 33.078125 C 33.492188 33.078125 33.578125 36.304688 36.058594 38.785156 Z M 36.058594 38.785156 "/>
<path style=" stroke:none;fill-rule:nonzero;fill:rgb(100%,100%,100%);fill-opacity:1;" d="M 36.773438 30.714844 C 37.746094 29.742188 39.324219 29.742188 40.292969 30.714844 C 41.265625 31.683594 41.265625 33.261719 40.292969 34.234375 C 39.324219 35.207031 37.746094 35.207031 36.773438 34.234375 C 35.804688 33.261719 35.804688 31.683594 36.773438 30.714844 Z M 36.773438 30.714844 "/>
</g>
</svg>
