<svg width="16" height="16" viewBox="0 0 16 16" fill="none" xmlns="http://www.w3.org/2000/svg">
<g clip-path="url(#clip0_758_3660)">
<path d="M0 16H16V0H0V16Z" fill="#808080" fill-opacity="0.01"/>
<path d="M10 0V6H12.5L8 13L3.5 6H6V0H10Z" fill="#232323"/>
<path d="M3 14C2.73478 14 2.48043 14.1054 2.29289 14.2929C2.10536 14.4804 2 14.7348 2 15C2 15.2652 2.10536 15.5196 2.29289 15.7071C2.48043 15.8946 2.73478 16 3 16H13C13.2652 16 13.5196 15.8946 13.7071 15.7071C13.8946 15.5196 14 15.2652 14 15C14 14.7348 13.8946 14.4804 13.7071 14.2929C13.5196 14.1054 13.2652 14 13 14H3Z" fill="#232323"/>
</g>
<defs>
<clipPath id="clip0_758_3660">
<rect width="16" height="16" fill="white"/>
</clipPath>
</defs>
</svg>
