<svg xmlns="http://www.w3.org/2000/svg" xmlns:xlink="http://www.w3.org/1999/xlink" viewBox="0,0,256,256" width="100px" height="100px"><g fill="#f1f1f1" fill-rule="nonzero" stroke="none" stroke-width="1" stroke-linecap="butt" stroke-linejoin="miter" stroke-miterlimit="10" stroke-dasharray="" stroke-dashoffset="0" font-family="none" font-weight="none" font-size="none" text-anchor="none" style="mix-blend-mode: normal"><g transform="scale(5.12,5.12)"><path d="M5,5v10h2v-5.70898l1.875,3.56641l1.12695,2.14258l1.12891,-2.14258l1.86914,-3.56055v5.70313h2v-10h-2l-2.99609,5.7168l-3.00391,-5.7168zM22.59961,5c-1.434,0 -2.59961,1.16661 -2.59961,2.59961v4.80078c0,1.433 1.16561,2.59961 2.59961,2.59961h4.80078c1.434,0 2.59961,-1.16661 2.59961,-2.59961v-4.80078c0,-1.433 -1.16561,-2.59961 -2.59961,-2.59961zM37.59961,5c-1.434,0 -2.59961,1.16661 -2.59961,2.59961v4.80078c0,1.433 1.16561,2.59961 2.59961,2.59961h4.80078c1.434,0 2.59961,-1.16661 2.59961,-2.59961v-4.80078c0,-1.433 -1.16561,-2.59961 -2.59961,-2.59961zM22.59961,7h4.80078c0.331,0 0.59961,0.26861 0.59961,0.59961v4.80078c0,0.331 -0.26861,0.59961 -0.59961,0.59961h-4.80078c-0.331,0 -0.59961,-0.26861 -0.59961,-0.59961v-4.80078c0,-0.331 0.26861,-0.59961 0.59961,-0.59961zM37.59961,7h4.80078c0.331,0 0.59961,0.26861 0.59961,0.59961v4.80078c0,0.331 -0.26861,0.59961 -0.59961,0.59961h-4.80078c-0.331,0 -0.59961,-0.26861 -0.59961,-0.59961v-4.80078c0,-0.331 0.26861,-0.59961 0.59961,-0.59961zM7.59961,20c-1.434,0 -2.59961,1.16661 -2.59961,2.59961v4.80078c0,1.433 1.16561,2.59961 2.59961,2.59961h4.80078c1.434,0 2.59961,-1.16661 2.59961,-2.59961v-4.80078c0,-1.433 -1.16561,-2.59961 -2.59961,-2.59961zM22.59961,20c-1.434,0 -2.59961,1.16561 -2.59961,2.59961v4.80078c0,1.433 1.16561,2.59961 2.59961,2.59961h4.80078c1.434,0 2.59961,-1.16661 2.59961,-2.59961v-4.80078c0,-1.433 -1.16561,-2.59961 -2.59961,-2.59961zM37.59961,20c-1.434,0 -2.59961,1.16561 -2.59961,2.59961v4.80078c0,1.433 1.16561,2.59961 2.59961,2.59961h4.80078c1.434,0 2.59961,-1.16661 2.59961,-2.59961v-4.80078c0,-1.433 -1.16561,-2.59961 -2.59961,-2.59961zM7.59961,22h4.80078c0.331,0 0.59961,0.26861 0.59961,0.59961v4.80078c0,0.331 -0.26861,0.59961 -0.59961,0.59961h-4.80078c-0.331,0 -0.59961,-0.26861 -0.59961,-0.59961v-4.80078c0,-0.331 0.26861,-0.59961 0.59961,-0.59961zM22.59961,22h4.80078c0.331,0 0.59961,0.26861 0.59961,0.59961v4.80078c0,0.331 -0.26861,0.59961 -0.59961,0.59961h-4.80078c-0.331,0 -0.59961,-0.26861 -0.59961,-0.59961v-4.80078c0,-0.331 0.26861,-0.59961 0.59961,-0.59961zM37.59961,22h4.80078c0.331,0 0.59961,0.26861 0.59961,0.59961v4.80078c0,0.331 -0.26861,0.59961 -0.59961,0.59961h-4.80078c-0.331,0 -0.59961,-0.26861 -0.59961,-0.59961v-4.80078c0,-0.331 0.26861,-0.59961 0.59961,-0.59961zM7.59961,35c-1.434,0 -2.59961,1.16661 -2.59961,2.59961v4.80078c0,1.433 1.16561,2.59961 2.59961,2.59961h4.80078c1.434,0 2.59961,-1.16661 2.59961,-2.59961v-4.80078c0,-1.433 -1.16561,-2.59961 -2.59961,-2.59961zM22.59961,35c-1.434,0 -2.59961,1.16561 -2.59961,2.59961v4.80078c0,1.433 1.16561,2.59961 2.59961,2.59961h4.80078c1.434,0 2.59961,-1.16661 2.59961,-2.59961v-4.80078c0,-1.433 -1.16561,-2.59961 -2.59961,-2.59961zM37.59961,35c-1.434,0 -2.59961,1.16561 -2.59961,2.59961v4.80078c0,1.433 1.16561,2.59961 2.59961,2.59961h4.80078c1.434,0 2.59961,-1.16661 2.59961,-2.59961v-4.80078c0,-1.433 -1.16561,-2.59961 -2.59961,-2.59961zM7.59961,37h4.80078c0.331,0 0.59961,0.26861 0.59961,0.59961v4.80078c0,0.331 -0.26861,0.59961 -0.59961,0.59961h-4.80078c-0.331,0 -0.59961,-0.26861 -0.59961,-0.59961v-4.80078c0,-0.331 0.26861,-0.59961 0.59961,-0.59961zM22.59961,37h4.80078c0.331,0 0.59961,0.26861 0.59961,0.59961v4.80078c0,0.331 -0.26861,0.59961 -0.59961,0.59961h-4.80078c-0.331,0 -0.59961,-0.26861 -0.59961,-0.59961v-4.80078c0,-0.331 0.26861,-0.59961 0.59961,-0.59961zM37.59961,37h4.80078c0.331,0 0.59961,0.26861 0.59961,0.59961v4.80078c0,0.331 -0.26861,0.59961 -0.59961,0.59961h-4.80078c-0.331,0 -0.59961,-0.26861 -0.59961,-0.59961v-4.80078c0,-0.331 0.26861,-0.59961 0.59961,-0.59961z"></path></g></g></svg>