<svg xmlns="http://www.w3.org/2000/svg" xmlns:xlink="http://www.w3.org/1999/xlink" viewBox="0,0,256,256" width="100px" height="100px"><g fill="#f1f1f1" fill-rule="nonzero" stroke="none" stroke-width="1" stroke-linecap="butt" stroke-linejoin="miter" stroke-miterlimit="10" stroke-dasharray="" stroke-dashoffset="0" font-family="none" font-weight="none" font-size="none" text-anchor="none" style="mix-blend-mode: normal"><g transform="scale(5.12,5.12)"><path d="M7,4c-1.64545,0 -3,1.35455 -3,3v36c0,1.64545 1.35455,3 3,3h36c1.64545,0 3,-1.35455 3,-3v-36c0,-1.64545 -1.35455,-3 -3,-3zM7,6h36c0.55454,0 1,0.44545 1,1v36c0,0.55454 -0.44546,1 -1,1h-36c-0.55455,0 -1,-0.44546 -1,-1v-36c0,-0.55455 0.44545,-1 1,-1zM22.5,13c-5.23486,0 -9.5,4.26514 -9.5,9.5c0,5.23486 4.26514,9.5 9.5,9.5c2.25822,0 4.33208,-0.79824 5.96484,-2.12109l7.82813,7.82813l1.41406,-1.41406l-7.82812,-7.82812c1.32286,-1.63277 2.12109,-3.70662 2.12109,-5.96484c0,-5.23486 -4.26514,-9.5 -9.5,-9.5zM22.5,15c4.15398,0 7.5,3.34602 7.5,7.5c0,4.15398 -3.34602,7.5 -7.5,7.5c-4.15398,0 -7.5,-3.34602 -7.5,-7.5c0,-4.15398 3.34602,-7.5 7.5,-7.5z"></path></g></g></svg>