<svg xmlns="http://www.w3.org/2000/svg" xmlns:xlink="http://www.w3.org/1999/xlink" viewBox="0,0,256,256" width="100px" height="100px"><g fill="#ffffff" fill-rule="nonzero" stroke="none" stroke-width="1" stroke-linecap="butt" stroke-linejoin="miter" stroke-miterlimit="10" stroke-dasharray="" stroke-dashoffset="0" font-family="none" font-weight="none" font-size="none" text-anchor="none" style="mix-blend-mode: normal"><g transform="scale(2.56,2.56)"><path d="M31,17c-7.72039,0 -14,6.27961 -14,14v38c0,7.72039 6.27961,14 14,14h38c7.72039,0 14,-6.27961 14,-14v-38c0,-7.72039 -6.27961,-14 -14,-14zM31,19h38c6.63961,0 12,5.36039 12,12v38c0,6.63961 -5.36039,12 -12,12h-38c-6.63961,0 -12,-5.36039 -12,-12v-38c0,-6.63961 5.36039,-12 12,-12zM33.5,22c-6.34523,0 -11.5,5.15477 -11.5,11.5v33c0,6.34523 5.15477,11.5 11.5,11.5h33c6.34523,0 11.5,-5.15477 11.5,-11.5v-17c0.00255,-0.18032 -0.09219,-0.34804 -0.24794,-0.43894c-0.15575,-0.0909 -0.34838,-0.0909 -0.50413,0c-0.15575,0.0909 -0.25049,0.25863 -0.24794,0.43894v17c0,5.80477 -4.69523,10.5 -10.5,10.5h-33c-5.80477,0 -10.5,-4.69523 -10.5,-10.5v-33c0,-5.80477 4.69523,-10.5 10.5,-10.5h33c0.31729,0 0.63424,0.01966 0.95508,0.04883c0.17795,0.01607 0.35095,-0.06402 0.45384,-0.2101c0.10288,-0.14608 0.12001,-0.33595 0.04493,-0.49809c-0.07508,-0.16213 -0.23096,-0.27189 -0.40892,-0.28791c-0.33916,-0.03083 -0.68621,-0.05273 -1.04492,-0.05273zM44,31c-7.17378,0 -13,5.82622 -13,13c0,7.17378 5.82622,13 13,13c3.227,0 6.17524,-1.18652 8.44922,-3.13672l1.84375,1.84375l0.03125,-0.03125c-0.55132,1.1206 -0.37533,2.51529 0.55469,3.44531l9,9c0.58363,0.58363 1.35401,0.87891 2.12109,0.87891c0.76708,0 1.53824,-0.29486 2.12109,-0.87891c1.16812,-1.16693 1.16783,-3.07436 0,-4.24219l-9,-9c-0.58313,-0.58433 -1.35211,-0.87499 -2.12109,-0.875c-0.4558,0 -0.90716,0.11543 -1.32422,0.32031l0.03125,-0.03125l-1.84375,-1.84375c1.9502,-2.27398 3.13672,-5.22222 3.13672,-8.44922c0,-7.17378 -5.82622,-13 -13,-13zM44,32c6.63334,0 12,5.36666 12,12c0,6.63334 -5.36666,12 -12,12c-6.63334,0 -12,-5.36666 -12,-12c0,-6.63334 5.36666,-12 12,-12zM44,34c-5.51693,0 -10,4.48307 -10,10c0,5.51693 4.48307,10 10,10c5.51693,0 10,-4.48307 10,-10c0,-5.51692 -4.48307,-10 -10,-10zM44,35c4.97649,0 9,4.02352 9,9c0,4.97648 -4.02351,9 -9,9c-4.97649,0 -9,-4.02352 -9,-9c0,-4.97648 4.02351,-9 9,-9zM77.49219,36.99219c-0.13261,0.00207 -0.25896,0.05673 -0.35127,0.15197c-0.0923,0.09523 -0.14299,0.22324 -0.14092,0.35584v2c-0.00255,0.18032 0.09219,0.34804 0.24794,0.43894c0.15575,0.0909 0.34838,0.0909 0.50413,0c0.15575,-0.0909 0.25049,-0.25863 0.24794,-0.43894v-2c0.00212,-0.13532 -0.0507,-0.26572 -0.1464,-0.36141c-0.0957,-0.0957 -0.22609,-0.14852 -0.36141,-0.1464zM77.49219,41.99219c-0.13261,0.00207 -0.25896,0.05673 -0.35127,0.15197c-0.0923,0.09523 -0.14299,0.22324 -0.14092,0.35584v4c-0.00255,0.18032 0.09219,0.34804 0.24794,0.43894c0.15575,0.0909 0.34838,0.0909 0.50413,0c0.15575,-0.0909 0.25049,-0.25863 0.24794,-0.43894v-4c0.00212,-0.13532 -0.0507,-0.26572 -0.1464,-0.36141c-0.0957,-0.0957 -0.22609,-0.14852 -0.36141,-0.1464zM57,54.99805c0.51077,-0.00001 1.02024,0.19522 1.41211,0.58789h0.00195l0.14648,0.14648l-2.82812,2.82813l-0.14648,-0.14648c-0.78617,-0.78617 -0.78588,-2.04305 0,-2.82812c0.39237,-0.39282 0.9033,-0.58788 1.41406,-0.58789zM59.26758,56.43945l8.14648,8.14648c0.78617,0.78617 0.78588,2.04305 0,2.82812h-0.00195c-0.3911,0.39195 -0.89919,0.58594 -1.41211,0.58594c-0.51292,0 -1.0217,-0.19357 -1.41406,-0.58594l-8.14648,-8.14648z"></path></g></g></svg>